# Made in Blockbench 4.12.4
mtllib datura_flower.mtl

o cone
v 0 0.81875 -1.4542680739874818e-17
v 0 0.55625 -4.668965921749284e-17
v 0.03883252147247766 0.81875 -0.09375000000000001
v 0.09375 0.81875 -0.038832521472477684
v 0.09375 0.81875 0.03883252147247765
v 0.03883252147247768 0.81875 0.09374999999999999
v -0.038832521472477656 0.81875 0.09375
v -0.09374999999999999 0.81875 0.03883252147247771
v -0.09375 0.81875 -0.0388325214724777
v -0.038832521472477725 0.81875 -0.09375
v 0 0.7250000000000002 -1.4542680739874812e-17
v 0 0.46250000000000024 -4.668965921749283e-17
v 0.03883252147247766 0.7250000000000002 -0.09375000000000001
v 0.09375 0.7250000000000002 -0.038832521472477684
v 0.09375 0.7250000000000002 0.03883252147247765
v 0.03883252147247768 0.7250000000000002 0.09374999999999999
v -0.038832521472477656 0.7250000000000002 0.09375
v -0.09374999999999999 0.7250000000000002 0.03883252147247771
v -0.09375 0.7250000000000002 -0.0388325214724777
v -0.038832521472477725 0.7250000000000002 -0.09375
v 1.734723475976807e-18 0 -3.469446951953614e-18
v 1.734723475976807e-18 0.75 -3.4694469519535957e-18
v 0.012944173824159223 0 0.031249999999999997
v 0.012944173824159223 0.75 0.031249999999999997
v 0.03125 0 0.01294417382415922
v 0.03125 0.75 0.01294417382415922
v 0.03125 0 -0.012944173824159223
v 0.03125 0.75 -0.012944173824159223
v 0.012944173824159227 0 -0.03125
v 0.012944173824159227 0.75 -0.03125
v -0.012944173824159216 0 -0.03125000000000001
v -0.012944173824159216 0.75 -0.03125000000000001
v -0.03124999999999999 0 -0.012944173824159244
v -0.03124999999999999 0.75 -0.012944173824159244
v -0.031249999999999997 0 0.012944173824159225
v -0.031249999999999997 0.75 0.012944173824159225
v -0.01294417382415924 0 0.03124999999999999
v -0.01294417382415924 0.75 0.03124999999999999
v 0.0875 0.7899587392637611 -0.04620873926376122
v 0.0875 0.9225412607362388 -0.17879126073623886
v -0.0875 0.7899587392637611 -0.04620873926376122
v -0.0875 0.9225412607362388 -0.17879126073623886
v 0.208045504152093 0.9100227909079107 0.08749999999999997
v 0.208045504152093 0.9100227909079107 -0.08750000000000001
v 0.05445449584790703 0.8024772090920895 0.08749999999999994
v 0.05445449584790703 0.8024772090920895 -0.08750000000000002
v 0.24555577607969184 0.8925183093647511 0.08750000000000002
v 0.24555577607969184 0.8925183093647511 -0.08749999999999994
v 0.20444422392030834 0.907481690635249 0.08749999999999994
v 0.20444422392030834 0.907481690635249 -0.08750000000000001
v -0.19819422392030817 0.907481690635249 0.08124999999999999
v -0.19819422392030817 0.907481690635249 -0.09375
v -0.23930577607969167 0.8925183093647511 0.08125000000000004
v -0.23930577607969167 0.8925183093647511 -0.09374999999999992
v -0.04820449584790697 0.8024772090920895 0.08124999999999996
v -0.04820449584790697 0.8024772090920895 -0.09375
v -0.2017955041520929 0.9100227909079105 0.08124999999999996
v -0.2017955041520929 0.9100227909079105 -0.09375
v 0.0875 0.9225412607362389 0.18504126073623872
v 0.0875 0.7899587392637613 0.052458739263761045
v -0.0875 0.9225412607362389 0.18504126073623872
v -0.0875 0.7899587392637613 0.052458739263761045
v 0.0875 0.9050183093647509 0.2205557760796918
v 0.0875 0.9199816906352487 0.17944422392030823
v -0.0875 0.9050183093647509 0.2205557760796918
v -0.0875 0.9199816906352487 0.17944422392030823
v 0.0875 0.9199816906352487 -0.1731942239203082
v 0.0875 0.9050183093647509 -0.21430577607969176
v -0.0875 0.9199816906352487 -0.1731942239203082
v -0.0875 0.9050183093647509 -0.21430577607969176
v 0 0.8116675902075694 0.006565318726050225
v 0 0.8739297588383035 0.01201255264777886
v 0.0038832521472477663 0.8108505051193102 0.015904644020660344
v 0.0038832521472477663 0.8731126737500443 0.02135187794238897
v 0.009375000000000001 0.8113291424823996 0.010433793926491837
v 0.009375000000000001 0.8735913111131337 0.015881027848220472
v 0.009375000000000001 0.8120060379327393 0.002696843525608615
v 0.009375000000000001 0.8742682065634734 0.008144077447337248
v 0.0038832521472477676 0.8124846752958288 -0.0027740065685598904
v 0.0038832521472477676 0.8747468439265629 0.0026732273531687428
v -0.003883252147247765 0.8124846752958288 -0.0027740065685598904
v -0.003883252147247765 0.8747468439265629 0.0026732273531687428
v -0.009374999999999996 0.8120060379327393 0.0026968435256086083
v -0.009374999999999996 0.8742682065634734 0.008144077447337241
v -0.009375 0.8113291424823996 0.01043379392649184
v -0.009375 0.8735913111131337 0.015881027848220472
v -0.0038832521472477724 0.8108505051193102 0.015904644020660337
v -0.0038832521472477724 0.8731126737500443 0.02135187794238897
vt 0.1875 0.94508125
vt 0.13258124999999998 1
vt 0.09375 0.90625
vt 0.36058032651198074 0.22928645450715068
vt 0.4375 0.21857068403804747
vt 0.43749999999999994 0.5
vt 0.1875 0.86741875
vt 0.1875 0.94508125
vt 0.09375 0.90625
vt 0.20303534201902376 0.625
vt 0.21375111248812695 0.5480803265119807
vt 0.48446465798097627 0.625
vt 0.13258124999999998 0.8125
vt 0.1875 0.86741875
vt 0.09375 0.90625
vt 0.5625 0.6042864545071507
vt 0.6394196734880193 0.5935706840380475
vt 0.6394196734880192 0.875
vt 0.05491875 0.8125
vt 0.13258124999999998 0.8125
vt 0.09375 0.90625
vt 0.015535342019023762 0.75
vt 0.02625111248812695 0.6730803265119807
vt 0.29696465798097627 0.75
vt 0 0.86741875
vt 0.05491875 0.8125
vt 0.09375 0.90625
vt 0.17308032651198074 0.10428645450715068
vt 0.25 0.09357068403804747
vt 0.24999999999999994 0.375
vt 0 0.94508125
vt 0 0.86741875
vt 0.09375 0.90625
vt 0.024040163255990364 0.2917864545071507
vt 0.10095983674400963 0.28107068403804747
vt 0.10095983674400957 0.5625
vt 0.05491875 1
vt 0 0.94508125
vt 0.09375 0.90625
vt 0.5 0.22928645450715068
vt 0.5769196734880193 0.21857068403804747
vt 0.5769196734880192 0.5
vt 0.13258124999999998 1
vt 0.05491875 1
vt 0.09375 0.90625
vt 0.26553534201902373 0.9999999999999999
vt 0.27625111248812695 0.9230803265119807
vt 0.5469646579809763 1
vt 0.15625 0.5662906249999999
vt 0.128790625 0.59375
vt 0.109375 0.546875
vt 0.27404016325599034 0.39589322725357534
vt 0.3125 0.39053534201902373
vt 0.31249999999999994 0.53125
vt 0.15625 0.5274593750000001
vt 0.15625 0.5662906249999999
vt 0.109375 0.546875
vt 0.44526767100951187 1
vt 0.4506255562440635 0.9615401632559903
vt 0.5859823289904882 1
vt 0.128790625 0.5
vt 0.15625 0.5274593750000001
vt 0.109375 0.546875
vt 0.34375 0.36464322725357534
vt 0.38220983674400966 0.35928534201902373
vt 0.3822098367440096 0.5
vt 0.08995937500000001 0.5
vt 0.128790625 0.5
vt 0.109375 0.546875
vt 0.19526767100951187 0.59375
vt 0.20062555624406347 0.5552901632559903
vt 0.33598232899048813 0.59375
vt 0.0625 0.5274593750000001
vt 0.08995937500000001 0.5
vt 0.109375 0.546875
vt 0.18029016325599037 0.36464322725357534
vt 0.21875 0.35928534201902373
vt 0.21874999999999997 0.5
vt 0.0625 0.5662906249999999
vt 0.0625 0.5274593750000001
vt 0.109375 0.546875
vt 0.44952008162799517 0.7708932272535753
vt 0.48797991837200483 0.7655353420190237
vt 0.4879799183720048 0.90625
vt 0.08995937500000001 0.59375
vt 0.0625 0.5662906249999999
vt 0.109375 0.546875
vt 0.46875 0.39589322725357534
vt 0.5072098367440097 0.39053534201902373
vt 0.5072098367440097 0.53125
vt 0.128790625 0.59375
vt 0.08995937500000001 0.59375
vt 0.109375 0.546875
vt 0.38276767100951187 0.59375
vt 0.3881255562440635 0.5552901632559903
vt 0.5234823289904882 0.59375
vt 0.46875 0.709596875
vt 0.459596875 0.71875
vt 0.453125 0.703125
vt 0.03125 0.59375
vt 0 0.59375
vt 0 0.21875
vt 0.03125 0.21875
vt 0.459596875 0.625
vt 0.46875 0.634153125
vt 0.453125 0.640625
vt 0.46875 0.696653125
vt 0.46875 0.709596875
vt 0.453125 0.703125
vt 0.03125 1
vt 0 1
vt 0 0.625
vt 0.03125 0.625
vt 0.46875 0.634153125
vt 0.46875 0.647096875
vt 0.453125 0.640625
vt 0.459596875 0.6875
vt 0.46875 0.696653125
vt 0.453125 0.703125
vt 0.34375 1
vt 0.3125 1
vt 0.3125 0.625
vt 0.34375 0.625
vt 0.46875 0.647096875
vt 0.459596875 0.65625
vt 0.453125 0.640625
vt 0.446653125 0.6875
vt 0.459596875 0.6875
vt 0.453125 0.703125
vt 0.21875 1
vt 0.1875 1
vt 0.1875 0.625
vt 0.21875 0.625
vt 0.459596875 0.65625
vt 0.446653125 0.65625
vt 0.453125 0.640625
vt 0.4375 0.696653125
vt 0.446653125 0.6875
vt 0.453125 0.703125
vt 0.40625 1
vt 0.375 1
vt 0.375 0.625
vt 0.40625 0.625
vt 0.446653125 0.65625
vt 0.4375 0.647096875
vt 0.453125 0.640625
vt 0.4375 0.709596875
vt 0.4375 0.696653125
vt 0.453125 0.703125
vt 0.09375 1
vt 0.0625 1
vt 0.0625 0.625
vt 0.09375 0.625
vt 0.4375 0.647096875
vt 0.4375 0.634153125
vt 0.453125 0.640625
vt 0.446653125 0.71875
vt 0.4375 0.709596875
vt 0.453125 0.703125
vt 0.28125 1
vt 0.25 1
vt 0.25 0.625
vt 0.28125 0.625
vt 0.4375 0.634153125
vt 0.446653125 0.625
vt 0.453125 0.640625
vt 0.459596875 0.71875
vt 0.446653125 0.71875
vt 0.453125 0.703125
vt 0.15625 1
vt 0.125 1
vt 0.125 0.625
vt 0.15625 0.625
vt 0.446653125 0.625
vt 0.459596875 0.625
vt 0.453125 0.640625
vt 0.1875 0.8125
vt 0.1875 1
vt 0 1
vt 0 0.8125
vt 0.4375 0.75
vt 0.25 0.75
vt 0.25 0.5625
vt 0.4375 0.5625
vt 0.25 0.5
vt 0.25 0.3125
vt 0.3125 0.3125
vt 0.3125 0.5
vt 0.6875 0.875
vt 0.5 0.875
vt 0.5 0.8125
vt 0.6875 0.8125
vt 0.25 1
vt 0.25 0.8125
vt 0.4375 0.8125
vt 0.4375 1
vt 0 0.75
vt 0 0.5625
vt 0.1875 0.5625
vt 0.1875 0.75
vt 0.5 1
vt 0.5 0.9375
vt 0.6875 0.9375
vt 0.6875 1
vt 0 0.5
vt 0 0.4375
vt 0.1875 0.4375
vt 0.1875 0.5
vt 0.00507333042888249 0.9964113059232798
vt 0.003586078145319519 1
vt 0 0.9964113059232798
vt 0 0.75
vt 0.00388125 0.75
vt 0.00388125 1
vt 0 1
vt 0 0.9949266695711175
vt 0.00358869407672021 0.9964139218546805
vt 8.673617379884035e-19 1
vt 0.0046875 0.99611875
vt 0.0046875 1
vt 0 0.998059375
vt 0 0.75
vt 0.00388125 0.75
vt 0.00388125 1
vt 0 1
vt 0.0046875 0.99611875
vt 0.0046875 1
vt 0 0.998059375
vt 0 0.9949266695711175
vt 0.00358869407672021 0.9964139218546805
vt 8.673617379884035e-19 1
vt 0 0.75
vt 0.00388125 0.75
vt 0.00388125 1
vt 0 1
vt 0.00507333042888249 0.9964113059232798
vt 0.003586078145319519 1
vt 0 0.9964113059232798
vt 0 0.9953125
vt 0.00388125 0.9953125
vt 0.001940625 1
vt 0 0.75
vt 0.00388125 0.75
vt 0.00388125 1
vt 0 1
vt 0.00388125 1
vt 0 1
vt 0.001940625 0.9953125
vt 0 1
vt 0.0014872522835629714 0.9964113059232798
vt 0.00507333042888249 1
vt 0 0.75
vt 0.00388125 0.75
vt 0.00388125 1
vt 0 1
vt 0.00358869407672021 1
vt 0 0.998512747716437
vt 0.0035886940767202117 0.9949266695711175
vt 0 1
vt 0 0.99611875
vt 0.0046875 0.998059375
vt 0 0.75
vt 0.00388125 0.75
vt 0.00388125 1
vt 0 1
vt 0 1
vt 0 0.99611875
vt 0.0046875 0.998059375
vt 0.00358869407672021 1
vt 0 0.998512747716437
vt 0.0035886940767202117 0.9949266695711175
vt 0 0.75
vt 0.00388125 0.75
vt 0.00388125 1
vt 0 1
vt 0 1
vt 0.0014872522835629714 0.9964113059232798
vt 0.00507333042888249 1
vt 0.00388125 1
vt 0 1
vt 0.001940625 0.9953125
vt 0 0.75
vt 0.00388125 0.75
vt 0.00388125 1
vt 0 1
vt 0 0.9953125
vt 0.00388125 0.9953125
vt 0.001940625 1
vn 0 1 1.2246467991473532e-16
vn 0.6659120918162916 -0.33633639699815626 -0.6659120918162917
vn 0 1 1.2246467991473532e-16
vn 0.9417419115948374 -0.33633639699815626 -4.1189329202054555e-17
vn 0 1 1.2246467991473532e-16
vn 0.6659120918162919 -0.33633639699815643 0.6659120918162916
vn 0 1 1.2246467991473532e-16
vn 1.6827769512857293e-16 -0.33633639699815643 0.9417419115948376
vn 0 1 1.2246467991473532e-16
vn -0.6659120918162914 -0.33633639699815643 0.665912091816292
vn 0 1 1.2246467991473532e-16
vn -0.9417419115948376 -0.3363363969981563 1.270883659265182e-16
vn 0 1 1.2246467991473532e-16
vn -0.6659120918162919 -0.3363363969981563 -0.6659120918162915
vn 0 1 1.2246467991473532e-16
vn -1.6827769512857283e-16 -0.3363363969981562 -0.9417419115948376
vn 0 1 1.2246467991473532e-16
vn 0.6659120918162916 -0.33633639699815626 -0.6659120918162917
vn 0 1 1.2246467991473532e-16
vn 0.9417419115948374 -0.33633639699815626 -4.1189329202054555e-17
vn 0 1 1.2246467991473532e-16
vn 0.6659120918162919 -0.33633639699815643 0.6659120918162916
vn 0 1 1.2246467991473532e-16
vn 1.6827769512857293e-16 -0.33633639699815643 0.9417419115948376
vn 0 1 1.2246467991473532e-16
vn -0.6659120918162914 -0.33633639699815643 0.665912091816292
vn 0 1 1.2246467991473532e-16
vn -0.9417419115948376 -0.3363363969981563 1.270883659265182e-16
vn 0 1 1.2246467991473532e-16
vn -0.6659120918162919 -0.3363363969981563 -0.6659120918162915
vn 0 1 1.2246467991473532e-16
vn -1.6827769512857283e-16 -0.3363363969981562 -0.9417419115948376
vn 0 -1 -1.2246467991473532e-16
vn 0.7071067811865476 -2.8357467701451904e-18 0.7071067811865476
vn 0 1 1.2246467991473532e-16
vn 0 -1 -1.2246467991473532e-16
vn 1 0 0
vn 0 1 1.2246467991473532e-16
vn 0 -1 -1.2246467991473532e-16
vn 0.7071067811865476 2.835746770145178e-18 -0.7071067811865475
vn 0 1 1.2246467991473532e-16
vn 0 -1 -1.2246467991473532e-16
vn 2.6803154833089315e-16 2.190518913676679e-18 -1
vn 0 1 1.2246467991473532e-16
vn 0 -1 -1.2246467991473532e-16
vn -0.7071067811865474 2.8357467701452027e-18 -0.7071067811865478
vn 0 1 1.2246467991473532e-16
vn 0 -1 -1.2246467991473532e-16
vn -1 5.871281760808685e-34 -2.6803154833089285e-16
vn 0 1 1.2246467991473532e-16
vn 0 -1 -1.2246467991473532e-16
vn -0.7071067811865477 -2.8357467701451033e-18 0.7071067811865475
vn 0 1 1.2246467991473532e-16
vn 0 -1 -1.2246467991473532e-16
vn -2.680315483308929e-16 -2.190518913676679e-18 1
vn 0 1 1.2246467991473532e-16
vn 0 0.7071067811865475 0.7071067811865476
vn -0.5735764363510462 0.8191520442889917 1.0031719290535246e-16
vn 0.3420201433256665 0.9396926207859092 1.1507915602278513e-16
vn -0.3420201433256665 0.9396926207859092 1.1507915602278513e-16
vn 0.5735764363510456 0.8191520442889924 1.0031719290535254e-16
vn 0 0.7071067811865477 -0.7071067811865474
vn 0 0.9396926207859101 0.34202014332566394
vn 0 0.9396926207859103 -0.3420201433256638
vn -1.3203811083140798e-15 -0.9961946980917469 -0.08715574274764477
vn 0.7071067811865472 -0.0616284167162194 0.7044160264027591
vn 1.291297823989982e-15 0.9961946980917469 0.08715574274764484
vn 5.903906717792023e-15 -0.9961946980917452 -0.08715574274766215
vn 1 0 0
vn -5.909723374656842e-15 0.9961946980917452 0.08715574274766213
vn 3.7808269621328205e-15 -0.9961946980917449 -0.08715574274766727
vn 0.7071067811865479 0.06162841671621931 -0.7044160264027585
vn -3.766285319970771e-15 0.9961946980917449 0.08715574274766727
vn 0 -0.9961946980917447 -0.08715574274766882
vn 0 0.08715574274765815 -0.9961946980917457
vn 0 0.9961946980917447 0.08715574274766882
vn -3.696485437592938e-15 -0.9961946980917449 -0.08715574274766731
vn -0.7071067811865476 0.061628416716219325 -0.7044160264027586
vn 3.687760452295709e-15 0.9961946980917449 0.08715574274766731
vn -5.892273404062378e-15 -0.9961946980917452 -0.08715574274766204
vn -1 3.8934147790972963e-17 -4.450193456142612e-16
vn 5.8748234334679205e-15 0.9961946980917452 0.08715574274766205
vn 1.2563978828010649e-15 -0.9961946980917469 -0.08715574274764487
vn -0.707106781186547 -0.0616284167162194 0.7044160264027592
vn -1.2825728386927535e-15 0.9961946980917469 0.08715574274764486
vn 7.786829558193448e-17 -0.9961946980917467 -0.08715574274764536
vn -8.900386912285235e-16 -0.08715574274765807 0.9961946980917457
vn 0 0.9961946980917467 0.08715574274764537
usemtl m_24d05392-4058-bd8b-818b-8fbb3926f4a3
f 4/1/1 3/2/1 1/3/1
f 3/4/2 4/5/2 2/6/2
f 5/7/3 4/8/3 1/9/3
f 4/10/4 5/11/4 2/12/4
f 6/13/5 5/14/5 1/15/5
f 5/16/6 6/17/6 2/18/6
f 7/19/7 6/20/7 1/21/7
f 6/22/8 7/23/8 2/24/8
f 8/25/9 7/26/9 1/27/9
f 7/28/10 8/29/10 2/30/10
f 9/31/11 8/32/11 1/33/11
f 8/34/12 9/35/12 2/36/12
f 10/37/13 9/38/13 1/39/13
f 9/40/14 10/41/14 2/42/14
f 3/43/15 10/44/15 1/45/15
f 10/46/16 3/47/16 2/48/16
usemtl m_8d9e4a4c-e246-9b72-fe6d-5a95b0dd6878
f 14/49/17 13/50/17 11/51/17
f 13/52/18 14/53/18 12/54/18
f 15/55/19 14/56/19 11/57/19
f 14/58/20 15/59/20 12/60/20
f 16/61/21 15/62/21 11/63/21
f 15/64/22 16/65/22 12/66/22
f 17/67/23 16/68/23 11/69/23
f 16/70/24 17/71/24 12/72/24
f 18/73/25 17/74/25 11/75/25
f 17/76/26 18/77/26 12/78/26
f 19/79/27 18/80/27 11/81/27
f 18/82/28 19/83/28 12/84/28
f 20/85/29 19/86/29 11/87/29
f 19/88/30 20/89/30 12/90/30
f 13/91/31 20/92/31 11/93/31
f 20/94/32 13/95/32 12/96/32
f 25/97/33 23/98/33 21/99/33
f 23/100/34 25/101/34 26/102/34 24/103/34
f 24/104/35 26/105/35 22/106/35
f 27/107/36 25/108/36 21/109/36
f 25/110/37 27/111/37 28/112/37 26/113/37
f 26/114/38 28/115/38 22/116/38
f 29/117/39 27/118/39 21/119/39
f 27/120/40 29/121/40 30/122/40 28/123/40
f 28/124/41 30/125/41 22/126/41
f 31/127/42 29/128/42 21/129/42
f 29/130/43 31/131/43 32/132/43 30/133/43
f 30/134/44 32/135/44 22/136/44
f 33/137/45 31/138/45 21/139/45
f 31/140/46 33/141/46 34/142/46 32/143/46
f 32/144/47 34/145/47 22/146/47
f 35/147/48 33/148/48 21/149/48
f 33/150/49 35/151/49 36/152/49 34/153/49
f 34/154/50 36/155/50 22/156/50
f 37/157/51 35/158/51 21/159/51
f 35/160/52 37/161/52 38/162/52 36/163/52
f 36/164/53 38/165/53 22/166/53
f 23/167/54 37/168/54 21/169/54
f 37/170/55 23/171/55 24/172/55 38/173/55
f 38/174/56 24/175/56 22/176/56
usemtl m_9281aa72-3b7d-77ff-f541-298c59d334f3
f 39/177/57 40/178/57 42/179/57 41/180/57
f 43/181/58 44/182/58 46/183/58 45/184/58
f 47/185/59 48/186/59 50/187/59 49/188/59
f 51/189/60 52/190/60 54/191/60 53/192/60
f 55/193/61 56/194/61 58/195/61 57/196/61
f 59/197/62 60/198/62 62/199/62 61/200/62
f 63/201/63 64/202/63 66/203/63 65/204/63
f 67/205/64 68/206/64 70/207/64 69/208/64
usemtl none
f 75/209/65 73/210/65 71/211/65
f 73/212/66 75/213/66 76/214/66 74/215/66
f 74/216/67 76/217/67 72/218/67
f 77/219/68 75/220/68 71/221/68
f 75/222/69 77/223/69 78/224/69 76/225/69
f 76/226/70 78/227/70 72/228/70
f 79/229/71 77/230/71 71/231/71
f 77/232/72 79/233/72 80/234/72 78/235/72
f 78/236/73 80/237/73 72/238/73
f 81/239/74 79/240/74 71/241/74
f 79/242/75 81/243/75 82/244/75 80/245/75
f 80/246/76 82/247/76 72/248/76
f 83/249/77 81/250/77 71/251/77
f 81/252/78 83/253/78 84/254/78 82/255/78
f 82/256/79 84/257/79 72/258/79
f 85/259/80 83/260/80 71/261/80
f 83/262/81 85/263/81 86/264/81 84/265/81
f 84/266/82 86/267/82 72/268/82
f 87/269/83 85/270/83 71/271/83
f 85/272/84 87/273/84 88/274/84 86/275/84
f 86/276/85 88/277/85 72/278/85
f 73/279/86 87/280/86 71/281/86
f 87/282/87 73/283/87 74/284/87 88/285/87
f 88/286/88 74/287/88 72/288/88
o cuboid
v 0.0875 0.9240577650307343 0.18352475644174332
v 0.0875 0.7914752435582566 0.05094223496926566
v 0.0875 0.9152189302659024 0.19236359120657515
v 0.0875 0.7826364087934248 0.0597810697340975
v -0.0875 0.9240577650307343 0.18352475644174332
v -0.0875 0.7914752435582566 0.05094223496926566
v -0.0875 0.9152189302659024 0.19236359120657515
v -0.0875 0.7826364087934248 0.0597810697340975
v 0.0875 0.7914752435582566 -0.044692234969265554
v 0.0875 0.9240577650307342 -0.1772747564417432
v 0.0875 0.7826364087934248 -0.05353106973409735
v 0.0875 0.9152189302659024 -0.1861135912065752
v -0.0875 0.7914752435582566 -0.044692234969265554
v -0.0875 0.9240577650307342 -0.1772747564417432
v -0.0875 0.7826364087934248 -0.05353106973409735
v -0.0875 0.9152189302659024 -0.1861135912065752
v 0.2038033962616836 0.9166930046914799 0.08750000000000004
v 0.2038033962616836 0.9166930046914799 -0.08749999999999994
v 0.21115071191533952 0.9065802922617928 0.08750000000000005
v 0.21115071191533952 0.9065802922617928 -0.08749999999999994
v 0.05211270981638097 0.8064832698866411 0.08750000000000005
v 0.05211270981638097 0.8064832698866411 -0.08749999999999991
v 0.059460025470036884 0.7963705574569543 0.08750000000000005
v 0.059460025470036884 0.7963705574569543 -0.08749999999999991
v -0.04586270981638091 0.8064832698866411 0.08750000000000005
v -0.04586270981638091 0.8064832698866411 -0.08749999999999991
v -0.05321002547003682 0.7963705574569543 0.08750000000000005
v -0.05321002547003682 0.7963705574569543 -0.08749999999999991
v -0.19755339626168353 0.9166930046914799 0.08750000000000004
v -0.19755339626168353 0.9166930046914799 -0.08749999999999994
v -0.20490071191533943 0.9065802922617928 0.08750000000000005
v -0.20490071191533943 0.9065802922617928 -0.08749999999999994
vt 0.34375 0.75
vt 0.25 0.75
vt 0.25 0.71875
vt 0.34375 0.71875
vt 0.34375 0.65625
vt 0.34375 0.6875
vt 0.25 0.6875
vt 0.25 0.65625
vt 0 0.90625
vt 0.09375 0.90625
vt 0.09375 1
vt 0 1
vt 0.09375 0.78125
vt 0.09375 0.875
vt 0 0.875
vt 0 0.78125
vt 0.09375 0.59375
vt 0.09375 0.625
vt 0 0.625
vt 0 0.59375
vt 0.46875 1
vt 0.375 1
vt 0.375 0.96875
vt 0.46875 0.96875
vt 0.375 0.9375
vt 0.375 0.84375
vt 0.40625 0.84375
vt 0.40625 0.9375
vt 0.125 0.53125
vt 0.15625 0.53125
vt 0.15625 0.625
vt 0.125 0.625
vt 0.125 0.90625
vt 0.21875 0.90625
vt 0.21875 1
vt 0.125 1
vt 0.125 0.875
vt 0.125 0.78125
vt 0.21875 0.78125
vt 0.21875 0.875
vt 0.28125 0.59375
vt 0.28125 0.625
vt 0.1875 0.625
vt 0.1875 0.59375
vt 0.375 0.78125
vt 0.46875 0.78125
vt 0.46875 0.8125
vt 0.375 0.8125
vt 0.28125 0.5625
vt 0.1875 0.5625
vt 0.1875 0.53125
vt 0.28125 0.53125
vt 0.375 0.46875
vt 0.40625 0.46875
vt 0.40625 0.5625
vt 0.375 0.5625
vt 0 0.65625
vt 0.09375 0.65625
vt 0.09375 0.75
vt 0 0.75
vt 0.34375 0.875
vt 0.25 0.875
vt 0.25 0.78125
vt 0.34375 0.78125
vt 0.46875 0.71875
vt 0.46875 0.75
vt 0.375 0.75
vt 0.375 0.71875
vt 0.34375 0.53125
vt 0.34375 0.625
vt 0.3125 0.625
vt 0.3125 0.53125
vt 0.53125 0.6875
vt 0.4375 0.6875
vt 0.4375 0.65625
vt 0.53125 0.65625
vt 0.4375 0.84375
vt 0.46875 0.84375
vt 0.46875 0.9375
vt 0.4375 0.9375
vt 0.25 1
vt 0.25 0.90625
vt 0.34375 0.90625
vt 0.34375 1
vt 0.125 0.75
vt 0.125 0.65625
vt 0.21875 0.65625
vt 0.21875 0.75
vt 0.375 0.59375
vt 0.40625 0.59375
vt 0.40625 0.6875
vt 0.375 0.6875
vt 0.09375 0.5625
vt 0 0.5625
vt 0 0.53125
vt 0.09375 0.53125
vn 1 0 0
vn -1 0 0
vn 0 0.7071067811865475 -0.7071067811865476
vn 0 -0.7071067811865475 0.7071067811865476
vn 0 0.7071067811865476 0.7071067811865475
vn 0 -0.7071067811865476 -0.7071067811865475
vn 1 0 0
vn -1 0 0
vn 0 0.7071067811865476 0.7071067811865475
vn 0 -0.707106781186548 -0.707106781186547
vn 0 -0.7071067811865475 0.7071067811865476
vn 0 0.7071067811865538 -0.7071067811865412
vn 0.8090169943749507 0.5877852522924687 -5.551115123125783e-17
vn -0.8090169943749468 -0.587785252292474 5.551115123125783e-17
vn -0.5877852522924734 0.8090169943749475 -5.551115123125783e-17
vn 0.5877852522924727 -0.8090169943749479 5.551115123125784e-17
vn 0 1.1102230246251568e-16 1
vn 0 -1.1102230246251568e-16 -1
vn 0.809016994374947 -0.5877852522924739 5.551115123125784e-17
vn -0.8090169943749517 0.5877852522924674 -5.551115123125783e-17
vn 0.5877852522924734 0.8090169943749475 -5.551115123125783e-17
vn -0.5877852522924727 -0.8090169943749477 5.551115123125783e-17
vn 0 1.1102230246251568e-16 1
vn 0 -1.1102230246251568e-16 -1
usemtl m_01460c0e-32a8-19f3-c062-b8f44756c9ed
f 90/289/89 89/290/89 91/291/89 92/292/89
f 95/293/90 93/294/90 94/295/90 96/296/90
f 93/297/91 89/298/91 90/299/91 94/300/91
f 92/301/92 91/302/92 95/303/92 96/304/92
f 91/305/93 89/306/93 93/307/93 95/308/93
f 94/309/94 90/310/94 92/311/94 96/312/94
f 98/313/95 97/314/95 99/315/95 100/316/95
f 103/317/96 101/318/96 102/319/96 104/320/96
f 101/321/97 97/322/97 98/323/97 102/324/97
f 100/325/98 99/326/98 103/327/98 104/328/98
f 99/329/99 97/330/99 101/331/99 103/332/99
f 102/333/100 98/334/100 100/335/100 104/336/100
f 106/337/101 105/338/101 107/339/101 108/340/101
f 111/341/102 109/342/102 110/343/102 112/344/102
f 109/345/103 105/346/103 106/347/103 110/348/103
f 108/349/104 107/350/104 111/351/104 112/352/104
f 107/353/105 105/354/105 109/355/105 111/356/105
f 110/357/106 106/358/106 108/359/106 112/360/106
f 114/361/107 113/362/107 115/363/107 116/364/107
f 119/365/108 117/366/108 118/367/108 120/368/108
f 117/369/109 113/370/109 114/371/109 118/372/109
f 116/373/110 115/374/110 119/375/110 120/376/110
f 115/377/111 113/378/111 117/379/111 119/380/111
f 118/381/112 114/382/112 116/383/112 120/384/112